<?xml version="1.0" encoding="UTF-8"?>
<!DOCTYPE svg PUBLIC "-//W3C//DTD SVG 1.1//EN" "http://www.w3.org/Graphics/SVG/1.1/DTD/svg11.dtd">
<!-- Creator: CorelDRAW X7 -->
<svg xmlns="http://www.w3.org/2000/svg" xml:space="preserve" width="201.083mm" height="111.125mm" version="1.1" style="shape-rendering:geometricPrecision; text-rendering:geometricPrecision; image-rendering:optimizeQuality; fill-rule:evenodd; clip-rule:evenodd"
viewBox="0 0 20108 11113"
 xmlns:xlink="http://www.w3.org/1999/xlink">
 <defs>
  <style type="text/css">
   <![CDATA[
    .str0 {stroke:#999999;stroke-width:132.29}
    .fil0 {fill:none}
    .fil1 {fill:#359903}
    .fil2 {fill:#359903}
    .fil3 {fill:url(#id0)}
   ]]>
  </style>
  <linearGradient id="id0" gradientUnits="userSpaceOnUse" x1="4246.04" y1="3317.57" x2="4444.48" y2="2724.67">
   <stop offset="0" style="stop-opacity:1; stop-color:#999999"/>
   <stop offset="1" style="stop-opacity:1; stop-color:#B3B3B3"/>
  </linearGradient>
 </defs>
 <g id="Layer_x0020_1">
  <metadata id="CorelCorpID_0Corel-Layer"/>
  <g id="_1492382570176">
   <path class="fil0 str0" d="M2386 3644l4101 0 0 780c-35,-4 -70,-7 -106,-7 -736,0 -1427,980 -925,1935l962 1833 69 -145 0 340c0,233 -191,424 -424,424l-3254 0c-233,0 -423,-191 -423,-424l0 -4736z"/>
   <path class="fil1" d="M6300 4341c758,0 1397,994 935,1974l-897 1902 -990 -1886c-516,-982 194,-1990 952,-1990zm-19 591c300,0 543,285 543,636 0,352 -243,636 -543,636 -299,0 -542,-284 -542,-636 0,-351 243,-636 542,-636z"/>
   <g>
    <rect class="fil2" x="2876" y="4320" width="463" height="3903"/>
    <rect class="fil2" x="3643" y="4928" width="463" height="3294"/>
    <rect class="fil2" x="4410" y="5576" width="463" height="2646"/>
   </g>
   <rect class="fil0 str0" transform="matrix(0.984808 -0.173648 0.173648 0.984808 3733.77 2600.56)" width="1058" height="547"/>
   <polygon class="fil3" points="2243,3186 6377,2457 6448,2856 2313,3585 "/>
  </g>
 </g>
</svg>
